<?xml version="1.0" standalone="no"?>
<!DOCTYPE svg PUBLIC "-//W3C//DTD SVG 20010904//EN"
 "http://www.w3.org/TR/2001/REC-SVG-20010904/DTD/svg10.dtd">
<svg version="1.0" xmlns="http://www.w3.org/2000/svg"
 width="1280.000000pt" height="828.000000pt" viewBox="0 0 1280.000000 828.000000"
 preserveAspectRatio="xMidYMid meet">
<metadata>
Created by potrace 1.15, written by Peter Selinger 2001-2017
</metadata>
<g transform="translate(0.000000,828.000000) scale(0.100000,-0.100000)"
fill="#CE0F69" stroke="none">
<path d="M8305 7464 c-786 -450 -1408 -866 -1970 -1319 -82 -67 -171 -135
-196 -153 -105 -71 -184 -198 -214 -342 -10 -46 -19 -174 -25 -331 -6 -152
-16 -287 -25 -330 -18 -86 -81 -223 -122 -260 -29 -28 -148 -59 -423 -110 -63
-12 -164 -32 -225 -44 -81 -18 -113 -21 -123 -12 -27 22 -52 87 -52 133 0 39
5 51 33 79 52 52 152 67 255 39 21 -6 22 -3 22 45 0 88 -39 137 -175 216 -127
74 -165 119 -165 195 0 57 26 80 91 80 41 0 74 -11 168 -54 64 -30 127 -56
141 -58 22 -3 26 2 34 40 6 29 5 60 -3 97 -15 68 -63 124 -189 218 -93 69
-147 129 -158 174 -4 12 2 39 13 60 14 30 26 40 56 47 32 8 54 4 145 -27 59
-20 123 -38 142 -39 l35 -3 0 75 c-1 64 -5 83 -30 129 -39 70 -119 141 -216
189 -73 36 -77 40 -61 55 29 27 69 37 173 43 96 7 99 8 99 31 0 35 -34 97 -71
127 -18 15 -73 48 -123 73 -126 63 -155 88 -187 158 -36 81 -42 116 -29 166
17 62 93 130 248 222 98 58 132 83 132 98 0 21 -35 39 -76 39 -24 0 -24 1 -24
88 0 48 5 120 10 161 6 41 7 77 5 80 -3 3 -32 -9 -64 -27 -75 -41 -154 -71
-327 -122 -183 -55 -276 -91 -357 -140 -103 -62 -211 -71 -482 -40 -44 6 -134
14 -201 20 -270 23 -444 -34 -539 -177 l-40 -61 -60 -6 c-33 -3 -116 -10 -185
-16 -376 -32 -613 -114 -764 -266 -48 -48 -103 -121 -108 -145 -4 -17 85 -14
262 8 148 18 335 20 405 4 67 -16 104 -43 151 -110 21 -31 60 -77 85 -103 l45
-47 -40 -5 c-159 -21 -802 -23 -821 -4 -3 3 26 22 65 43 70 36 91 58 74 75 -5
5 -67 20 -137 34 -219 45 -501 148 -726 267 -52 27 -96 47 -99 45 -10 -11 44
-156 98 -264 133 -262 351 -483 596 -607 49 -25 97 -45 107 -45 22 0 19 10
-24 114 -16 39 -27 72 -25 74 4 4 434 -12 726 -26 l135 -7 18 -36 c10 -20 24
-88 33 -150 34 -250 58 -317 133 -358 23 -13 46 -19 50 -15 4 5 30 67 56 137
27 70 52 130 56 133 4 2 18 -14 30 -36 36 -63 60 -56 106 33 68 130 216 256
305 261 28 1 33 -4 51 -46 l19 -47 -46 -53 c-61 -70 -123 -192 -181 -358 -57
-162 -116 -292 -154 -340 -43 -54 -66 -106 -95 -212 -30 -114 -52 -162 -95
-202 -27 -26 -31 -37 -31 -82 0 -54 -33 -192 -95 -399 -65 -216 -57 -380 25
-494 l31 -42 -26 -45 c-14 -24 -43 -55 -63 -69 -104 -68 -238 -32 -491 131
-118 76 -124 82 -158 146 -31 60 -110 149 -155 174 -12 6 -20 34 -28 94 -15
110 -56 268 -119 452 l-49 146 27 24 c14 14 46 40 71 58 109 81 160 148 160
210 0 18 9 87 21 153 24 137 21 216 -9 256 -25 34 -83 74 -93 64 -4 -5 -22
-48 -40 -98 -17 -49 -43 -107 -58 -127 -24 -35 -85 -78 -95 -68 -2 3 0 28 5
55 19 97 -9 234 -69 330 -73 120 -213 205 -334 205 -56 0 -51 -30 14 -88 70
-63 88 -106 88 -212 0 -71 -36 -305 -57 -370 -3 -9 -14 9 -28 42 -53 131 -159
247 -272 301 -61 29 -77 32 -158 32 -85 0 -90 -1 -93 -22 -2 -15 12 -35 46
-67 59 -55 85 -110 106 -228 9 -49 23 -127 32 -175 27 -150 81 -231 182 -275
l44 -20 -6 -46 c-4 -26 -11 -109 -16 -184 -22 -296 -63 -413 -194 -557 -65
-70 -85 -112 -102 -209 -23 -143 -67 -189 -194 -205 -8 -1 -16 -14 -18 -30 -3
-23 2 -30 32 -42 85 -36 221 -11 341 62 112 67 136 101 198 275 36 100 84 186
96 172 5 -5 23 -47 41 -94 48 -122 134 -292 193 -380 49 -72 91 -116 358 -375
279 -270 477 -623 555 -993 10 -45 21 -82 26 -82 4 0 28 26 53 57 43 55 95
153 183 345 l40 87 66 20 c89 27 205 41 353 41 l123 0 0 -32 c0 -41 -24 -93
-84 -185 -51 -80 -76 -140 -76 -185 0 -19 -18 -58 -50 -106 -51 -78 -90 -179
-90 -234 0 -82 -147 -256 -268 -317 -149 -75 -269 -80 -412 -17 -257 114 -411
156 -571 158 -77 1 -103 -2 -124 -16 -31 -20 -61 -82 -71 -144 -8 -52 -2 -53
82 -13 61 29 62 29 92 11 30 -18 48 -57 54 -114 l3 -30 -91 -12 c-153 -21
-240 -61 -298 -137 -25 -32 -55 -121 -45 -132 3 -2 31 4 61 15 144 50 272 48
350 -6 46 -32 47 -40 9 -49 -43 -9 -105 -57 -139 -108 -35 -50 -72 -152 -72
-197 0 -46 36 -39 111 21 112 90 158 101 239 59 72 -38 193 -40 295 -5 44 14
115 47 158 73 150 91 123 84 307 77 153 -6 167 -5 200 14 93 53 122 63 174 59
58 -5 137 -41 212 -98 98 -74 171 -84 351 -49 130 26 234 28 285 5 21 -9 40
-16 43 -16 16 0 2 92 -21 139 -54 108 -153 153 -439 201 -60 10 -134 24 -162
30 -61 13 -61 8 -12 144 64 177 162 307 469 621 124 127 241 252 260 278 19
25 37 47 40 47 3 0 19 -42 37 -93 17 -51 63 -163 102 -248 61 -134 73 -154 95
-157 33 -4 43 12 121 197 97 231 145 300 242 348 49 23 74 28 173 34 104 5
122 9 190 41 42 19 114 57 160 85 145 85 266 124 343 109 32 -6 33 -8 43 -75
21 -131 80 -210 247 -335 59 -44 109 -87 112 -97 18 -56 135 -116 275 -139
140 -23 280 -80 280 -113 0 -27 -75 -104 -182 -187 -62 -48 -119 -94 -127
-103 -7 -10 -27 -17 -43 -17 -17 0 -90 -14 -162 -31 -105 -25 -148 -30 -216
-27 -123 5 -185 37 -325 167 -62 57 -133 113 -162 127 -51 25 -57 26 -175 19
-161 -10 -236 -32 -293 -89 -31 -32 -45 -56 -55 -95 -7 -30 -9 -56 -4 -61 6
-6 46 8 96 31 51 24 95 38 106 35 10 -4 40 -31 66 -61 53 -62 102 -90 226
-129 46 -15 98 -35 115 -43 32 -16 95 -72 95 -85 0 -14 -74 -21 -121 -10 -27
7 -99 34 -160 63 l-112 51 -111 -7 c-250 -15 -361 -72 -400 -206 -33 -109 -15
-120 96 -60 90 49 72 53 200 -41 l68 -50 -30 -30 c-43 -43 -61 -83 -67 -147
-5 -56 15 -131 35 -131 4 0 18 13 30 29 37 50 92 68 230 75 123 6 189 23 232
60 24 22 149 63 227 75 39 6 162 11 273 11 110 0 243 5 295 10 l93 11 119 -59
c238 -119 360 -145 491 -103 l68 22 75 -40 c86 -47 109 -51 109 -18 0 41 -22
101 -51 142 -62 86 -193 145 -411 186 -65 12 -115 25 -111 29 4 3 49 21 98 39
335 124 650 358 860 641 43 58 82 115 88 128 6 12 17 22 26 22 9 0 88 -25 176
-56 175 -60 276 -87 287 -76 10 10 -9 157 -27 213 -19 58 -62 118 -108 153
-23 18 -99 44 -243 85 -236 68 -338 104 -439 159 -60 33 -74 46 -98 93 -25 47
-28 63 -25 120 3 53 10 77 38 125 40 67 231 264 258 264 35 0 140 -59 246
-139 60 -45 121 -88 136 -96 42 -22 406 -112 504 -125 50 -7 117 -10 151 -6
53 5 70 3 116 -18 68 -31 144 -43 334 -51 236 -10 317 -36 401 -127 39 -42 41
-49 58 -158 25 -159 31 -303 17 -386 -12 -70 -50 -165 -77 -195 -9 -10 -16
-43 -18 -91 -5 -124 -73 -220 -193 -275 -49 -22 -65 -25 -141 -21 -131 7 -194
43 -401 226 -174 154 -165 151 -296 125 -190 -38 -274 -96 -291 -202 -7 -43
-6 -44 17 -38 106 27 126 29 169 17 45 -12 114 -72 107 -93 -2 -6 -39 -25 -83
-42 -163 -64 -261 -131 -299 -206 -9 -17 -19 -55 -22 -85 -6 -53 -5 -54 21
-54 14 0 46 16 73 36 70 53 88 58 154 40 69 -20 142 -20 287 -1 173 23 181 14
51 -52 -142 -72 -233 -154 -284 -255 -19 -39 -35 -86 -35 -104 0 -29 3 -34 25
-34 13 0 53 16 88 35 80 44 170 75 216 75 68 0 156 31 256 90 180 107 230 116
350 63 124 -54 197 -52 395 12 172 56 241 46 443 -67 103 -57 111 -60 145 -50
104 29 186 22 282 -26 30 -15 58 -29 62 -30 18 -8 7 96 -16 144 -30 64 -78
102 -203 160 -54 25 -130 61 -169 79 -120 55 -183 130 -184 216 0 20 15 101
34 180 110 459 131 773 71 1063 -9 43 -15 80 -13 82 2 1 33 -18 68 -43 36 -25
99 -62 140 -82 68 -32 83 -36 156 -36 96 0 116 11 107 58 -15 80 -62 140 -177
226 -199 150 -454 305 -806 490 -96 51 -179 96 -183 100 -4 4 25 13 65 20 377
65 700 186 964 362 130 86 325 276 397 385 136 208 165 482 79 769 -13 45 -16
74 -11 115 7 53 19 90 110 342 l42 118 86 -88 c92 -94 190 -165 295 -212 114
-52 116 -47 51 144 -45 135 -85 313 -105 466 -28 216 -30 654 -4 973 l7 87
-29 0 c-25 -1 -42 -17 -116 -109 -168 -207 -384 -438 -746 -798 -256 -254
-363 -367 -360 -380 5 -28 86 -35 336 -30 128 2 222 0 222 -5 0 -23 -115 -248
-124 -244 -114 50 -175 72 -255 93 -83 23 -117 26 -256 27 -190 0 -256 -13
-390 -79 -147 -71 -259 -188 -296 -306 -23 -75 -25 -192 -4 -274 23 -86 62
-152 131 -221 68 -68 161 -114 288 -141 92 -20 282 -19 408 1 140 23 141 23
78 -35 -66 -61 -167 -112 -275 -140 -178 -46 -531 -34 -795 27 -284 67 -390
78 -732 78 -170 1 -308 5 -308 10 0 4 39 47 88 95 101 99 209 162 357 207 82
25 104 28 257 28 93 1 168 1 168 1 0 0 -29 54 -65 120 -90 165 -107 214 -113
316 -11 202 110 448 314 638 136 127 345 253 533 321 59 21 77 33 79 49 2 13
-3 23 -15 27 -10 3 -60 26 -110 51 -165 80 -229 177 -197 300 43 166 148 295
440 539 157 131 304 274 304 295 0 5 -66 -14 -147 -42 -142 -49 -233 -85 -818
-324 -268 -109 -542 -206 -701 -249 -90 -23 -92 -24 -143 -6 -146 49 -214 188
-190 383 13 106 58 242 118 360 l49 97 -26 0 c-16 0 -118 -52 -247 -126z
m-4717 -945 c65 -21 183 -94 190 -116 2 -9 -7 -13 -26 -13 -16 0 -89 -11 -163
-25 -171 -32 -339 -44 -339 -24 0 27 15 37 54 35 34 -1 41 2 46 24 4 14 11 24
16 24 5 -1 24 -5 42 -9 l32 -7 0 72 0 73 43 -7 c23 -4 70 -16 105 -27z m6768
-1542 c49 -18 112 -57 137 -84 17 -19 16 -21 -26 -60 -81 -75 -219 -108 -323
-78 -64 18 -144 86 -144 121 0 25 48 77 90 99 67 35 174 35 266 2z"/>
</g>
</svg>
